{"asset":{"version":"2.0","generator":"VECTARY"},"nodes":[{"translation":[-0.20751886471113715,0.10647467486033725,-0.041627196401760845],"scale":[0.0013709067190551154,0.001370906719055115,0.0013709067190551154],"rotation":[-0.6383294101243858,-0.3594208378076724,-0.4553246087514974,0.5059957768452026],"name":"3D Text - E","mesh":0},{"translation":[-0.19629992669742422,0.10640856475642482,-0.009203874956702607],"scale":[0.0013709067190551154,0.001370906719055115,0.0013709067190551154],"rotation":[-0.6383294101243858,-0.3594208378076724,-0.4553246087514974,0.5059957768452026],"name":"3D Text - S","mesh":1},{"translation":[-0.18522873589196912,0.10634332528601434,0.02279244927880703],"scale":[0.0013709067190551154,0.001370906719055115,0.0013709067190551154],"rotation":[-0.6383294101243858,-0.3594208378076724,-0.4553246087514974,0.5059957768452026],"name":"3D Text - C","mesh":2},{"translation":[-0.12650473241636057,-4.9444406886648784e-18,7.792434914885677e-19],"scale":[0.0017299267759329823,0.0017299267759329823,0.0017299267759329823],"rotation":[-0.7062480704037898,0.2520653400773175,-0.03483766712803198,0.6606535130699802],"name":"Box","mesh":3}],"materials":[{"pbrMetallicRoughness":{"baseColorFactor":[1,1,1,1],"metallicFactor":1,"roughnessFactor":0.5},"name":"Chrome Satin","emissiveFactor":[0,0,0],"extensions":{},"alphaMode":"OPAQUE","doubleSided":false},{"pbrMetallicRoughness":{"baseColorFactor":[0.5356416093153108,0.5356416093153108,0.5356416093153108,1],"metallicFactor":1,"roughnessFactor":0.05},"name":"Silver Glossy","emissiveFactor":[0,0,0],"extensions":{},"alphaMode":"OPAQUE","doubleSided":false}],"meshes":[{"primitives":[{"mode":4,"attributes":{"POSITION":1,"NORMAL":2,"TEXCOORD_0":3},"material":0,"indices":0}]},{"primitives":[{"mode":4,"attributes":{"POSITION":5,"NORMAL":6,"TEXCOORD_0":7},"material":0,"indices":4}]},{"primitives":[{"mode":4,"attributes":{"POSITION":9,"NORMAL":10,"TEXCOORD_0":11},"material":0,"indices":8}]},{"primitives":[{"mode":4,"attributes":{"POSITION":13,"NORMAL":14,"TEXCOORD_0":15},"material":1,"indices":12}]}],"accessors":[{"bufferView":0,"byteOffset":0,"componentType":5125,"count":132,"type":"SCALAR"},{"bufferView":1,"byteOffset":0,"componentType":5126,"count":84,"max":[24.80500030517578,2.1855658677570914e-15,35.69300079345703],"min":[4.9070000648498535,-15,0],"type":"VEC3"},{"bufferView":2,"byteOffset":0,"componentType":5126,"count":84,"type":"VEC3"},{"bufferView":3,"byteOffset":0,"componentType":5126,"count":84,"type":"VEC2"},{"bufferView":4,"byteOffset":0,"componentType":5125,"count":1392,"type":"SCALAR"},{"bufferView":5,"byteOffset":0,"componentType":5126,"count":930,"max":[25.048999786376953,2.216978084606017e-15,36.20600128173828],"min":[2.5880000591278076,-15,-0.4880000054836273],"type":"VEC3"},{"bufferView":6,"byteOffset":0,"componentType":5126,"count":930,"type":"VEC3"},{"bufferView":7,"byteOffset":0,"componentType":5126,"count":930,"type":"VEC2"},{"bufferView":8,"byteOffset":0,"componentType":5125,"count":792,"type":"SCALAR"},{"bufferView":9,"byteOffset":0,"componentType":5126,"count":530,"max":[30.054000854492188,2.216978084606017e-15,36.20600128173828],"min":[3.052000045776367,-15,-0.4880000054836273],"type":"VEC3"},{"bufferView":10,"byteOffset":0,"componentType":5126,"count":530,"type":"VEC3"},{"bufferView":11,"byteOffset":0,"componentType":5126,"count":530,"type":"VEC2"},{"bufferView":12,"byteOffset":0,"componentType":5125,"count":2916,"type":"SCALAR"},{"bufferView":13,"byteOffset":0,"componentType":5126,"count":596,"max":[49.967201232910156,50,113.91517639160156],"min":[-63.296897888183594,-50,0],"type":"VEC3"},{"bufferView":14,"byteOffset":0,"componentType":5126,"count":596,"type":"VEC3"},{"bufferView":15,"byteOffset":0,"componentType":5126,"count":596,"type":"VEC2"}],"bufferViews":[{"buffer":0,"byteOffset":0,"byteLength":528,"target":34963},{"buffer":0,"byteOffset":528,"byteLength":1008,"target":34962},{"buffer":0,"byteOffset":1536,"byteLength":1008,"target":34962},{"buffer":0,"byteOffset":2544,"byteLength":672,"target":34962},{"buffer":0,"byteOffset":3216,"byteLength":5568,"target":34963},{"buffer":0,"byteOffset":8784,"byteLength":11160,"target":34962},{"buffer":0,"byteOffset":19944,"byteLength":11160,"target":34962},{"buffer":0,"byteOffset":31104,"byteLength":7440,"target":34962},{"buffer":0,"byteOffset":38544,"byteLength":3168,"target":34963},{"buffer":0,"byteOffset":41712,"byteLength":6360,"target":34962},{"buffer":0,"byteOffset":48072,"byteLength":6360,"target":34962},{"buffer":0,"byteOffset":54432,"byteLength":4240,"target":34962},{"buffer":0,"byteOffset":58672,"byteLength":11664,"target":34963},{"buffer":0,"byteOffset":70336,"byteLength":7152,"target":34962},{"buffer":0,"byteOffset":77488,"byteLength":7152,"target":34962},{"buffer":0,"byteOffset":84640,"byteLength":4768,"target":34962}],"scene":0,"scenes":[{"nodes":[0,1,2,3],"name":"Project Name"}],"extensionsUsed":["KHR_texture_transform"],"buffers":[{"byteLength":89408,"uri":"ProjectName.bin"}]}